<svg xmlns="http://www.w3.org/2000/svg" width="32" height="32" viewBox="0 0 32 32" shape-rendering="crispEdges">
  <rect x="0" y="0" width="32" height="32" fill="#1a4b8c"/>
  <path d="M0 4 Q4 3 8 4" stroke="#2d6cb5" fill="none" stroke-width="1"/>
  <path d="M0 12 Q4 11 8 12" stroke="#2d6cb5" fill="none" stroke-width="1"/>
  <path d="M0 20 Q4 19 8 20" stroke="#2d6cb5" fill="none" stroke-width="1"/>
  <path d="M0 28 Q4 27 8 28" stroke="#2d6cb5" fill="none" stroke-width="1"/>
  <rect x="14" y="0" width="18" height="32" fill="#6b4423"/>
  <line x1="14" y1="0" x2="32" y2="0" stroke="#4a3218" stroke-width="1"/>
  <line x1="14" y1="4" x2="32" y2="4" stroke="#4a3218" stroke-width="1"/>
  <line x1="14" y1="8" x2="32" y2="8" stroke="#4a3218" stroke-width="1"/>
  <line x1="14" y1="12" x2="32" y2="12" stroke="#4a3218" stroke-width="1"/>
  <line x1="14" y1="16" x2="32" y2="16" stroke="#4a3218" stroke-width="1"/>
  <line x1="14" y1="20" x2="32" y2="20" stroke="#4a3218" stroke-width="1"/>
  <line x1="14" y1="24" x2="32" y2="24" stroke="#4a3218" stroke-width="1"/>
  <line x1="14" y1="28" x2="32" y2="28" stroke="#4a3218" stroke-width="1"/>
  <rect x="13" y="2" width="3" height="4" fill="#4a3218"/>
  <rect x="13" y="14" width="3" height="4" fill="#4a3218"/>
  <rect x="13" y="26" width="3" height="4" fill="#4a3218"/>
  <circle cx="24" cy="16" r="3" fill="none" stroke="#a0845c" stroke-width="1"/></svg>
