<?xml version="1.0" encoding="UTF-8"?>
<svg id="Layer_1" data-name="Layer 1" xmlns="http://www.w3.org/2000/svg" xmlns:xlink="http://www.w3.org/1999/xlink" viewBox="0 0 653.88 168.07">
  <defs>
    <style>
      .cls-1 {
        fill: url(#linear-gradient-5);
      }

      .cls-2 {
        fill: url(#linear-gradient-6);
      }

      .cls-3 {
        fill: url(#linear-gradient-4);
      }

      .cls-4 {
        fill: url(#linear-gradient-3);
      }

      .cls-5 {
        fill: url(#linear-gradient-2);
      }

      .cls-6 {
        fill: #231f20;
      }

      .cls-7 {
        fill: url(#linear-gradient);
      }

      .cls-8 {
        fill: #f1f2f2;
      }
    </style>
    <linearGradient id="linear-gradient" x1="66.35" y1="119.44" x2="102.9" y2="119.44" gradientUnits="userSpaceOnUse">
      <stop offset="0" stop-color="#fdf0c7"/>
      <stop offset="1" stop-color="#f8dea5"/>
    </linearGradient>
    <linearGradient id="linear-gradient-2" x1="12.88" y1="42.95" x2="84.34" y2="104.9" gradientUnits="userSpaceOnUse">
      <stop offset=".01" stop-color="#75fcfb"/>
      <stop offset=".46" stop-color="#51b1f9"/>
      <stop offset="1" stop-color="#092682"/>
    </linearGradient>
    <linearGradient id="linear-gradient-3" x1="14.91" y1="136.29" x2="81.81" y2="95.62" gradientUnits="userSpaceOnUse">
      <stop offset=".01" stop-color="#75fcfb"/>
      <stop offset=".46" stop-color="#51b1f9"/>
      <stop offset="1" stop-color="#092682"/>
    </linearGradient>
    <linearGradient id="linear-gradient-4" x1="66.35" y1="72.63" x2="102.9" y2="72.63" gradientUnits="userSpaceOnUse">
      <stop offset="0" stop-color="#fdf0c7"/>
      <stop offset="1" stop-color="#f8dea5"/>
    </linearGradient>
    <linearGradient id="linear-gradient-5" x1="114.19" y1="109.41" x2="134.41" y2="109.41" gradientUnits="userSpaceOnUse">
      <stop offset=".01" stop-color="#ec7cf3"/>
      <stop offset=".46" stop-color="#eb51ee"/>
      <stop offset="1" stop-color="#ea3ec8"/>
    </linearGradient>
    <linearGradient id="linear-gradient-6" x1="114.19" y1="62.67" x2="134.41" y2="62.67" xlink:href="#linear-gradient-5"/>
  </defs>
  <rect x="-1204.3" y="-61.69" width="1955.72" height="667.03"/>
  <g>
    <g>
      <path class="cls-7" d="M109.66,137.53c.82,1.19,0,2.8-1.45,2.8h-7.88c-3.6,0-7.06-1.41-9.63-3.95l-31.17-30.83c-2.61-2.57-.78-7.01,2.88-7.01h20.7c4.55,0,8.91,1.84,12.09,5.1l11.68,11.9v13.07c0,3.31,1.02,6.38,2.77,8.92Z"/>
      <path class="cls-5" d="M48.78,89.15c1.57-1.06,3.25-2.36,4.95-3.8v-30.2c0-2.26-.89-4.42-2.48-6.04l-22.17-22.22c-1.37-1.39-3.75-.44-3.75,1.5v48.97c0,7.86,6.37,14.23,14.23,14.23h1.25c2.84,0,5.61-.85,7.97-2.44Z"/>
      <path class="cls-6" d="M35.55,90.06s-.04-.02-.06-.04"/>
      <path class="cls-4" d="M25.33,140.34h13.84c8.04,0,14.56-6.52,14.56-14.56v-27.23h-5.22c-12.8,0-23.18,10.38-23.18,23.18v18.62Z"/>
      <path class="cls-3" d="M108.09,51.29c1.44,0,2.26,1.61,1.45,2.79-1.71,2.52-2.72,5.56-2.72,8.83v12.75l-13.63,13.45c-3.16,3.11-7.42,4.85-11.85,4.85h-33.11c-1.44,0-2.85-.13-4.22-.39,4.94-.86,8.55-3.5,8.58-3.52,5.72-4.14,34.65-34.53,34.65-34.53,2.75-2.72,6.47-4.24,10.34-4.24h10.5Z"/>
      <path class="cls-1" d="M139.2,89.51v50.82l-16.57-.06c-6.43-.03-11.62-5.24-11.62-11.67v-50.12h17.16c6.09,0,11.03,4.94,11.03,11.03Z"/>
      <path class="cls-2" d="M139.24,51.29v11.12c0,6.42-5.2,11.63-11.63,11.63h-16.66v-11.13c0-6.42,5.2-11.63,11.63-11.63h11.66s5,0,5,0Z"/>
    </g>
    <g>
      <path class="cls-8" d="M170.7,140.34c-1.42,0-2.17-.75-2.17-2.17v-54.16c0-1.59.75-2.17,2.17-2.17h10.11c1.59,0,2.26.59,2.26,2.17v54.16c0,1.59-.67,2.17-2.26,2.17h-10.11ZM218.68,81.82c1.17,0,1.75.42,1.75,1.17,0,.33-.17.75-.5,1.25l-19.39,26,20.23,27.67c.42.42.58.92.58,1.34,0,.67-.75,1.09-1.84,1.09h-12.12c-2.26,0-2.93-.42-4.18-2.17l-17.97-25.49c-.5-.75-.75-1.42-.75-1.92,0-.59.25-1.25.84-2.01l17.47-24.66c1.25-1.92,2.01-2.26,4.1-2.26h11.79Z"/>
      <path class="cls-8" d="M229.79,140.34c-1.42,0-2.17-.75-2.17-2.17v-54.16c0-1.59.75-2.17,2.17-2.17h19.14c17.47,0,26,6.27,26,19.64,0,7.02-3.26,12.12-9.86,15.3l12.79,20.9c.42.59.59,1.09.59,1.51,0,.75-.67,1.17-2.09,1.17h-10.87c-2.34,0-3.09-.42-4.35-2.51l-13.37-23.24c-.08-.08-.5-.92-.5-1.34,0-.59.58-.92,1.67-1.09,6.44-.75,10.95-3.84,10.95-9.28s-3.85-8.36-11.28-8.36h-5.18c-1,0-1.25.25-1.25,1.25v42.38c0,1.59-.67,2.17-2.26,2.17h-10.11Z"/>
      <path class="cls-8" d="M324.74,138.16c0,1.42-.75,2.17-2.26,2.17h-35.19c-1.42,0-2.17-.75-2.17-2.17v-54.16c0-1.59.75-2.17,2.17-2.17h35.11c1.5,0,2.26.75,2.26,2.17v9.03c0,1.59-.67,2.17-2.26,2.17h-21.48c-1,0-1.25.34-1.25,1.25v6.52c0,1,.25,1.25,1.25,1.25h18.72c1.59,0,2.17.67,2.17,2.26v8.94c0,1.42-.58,2.17-2.17,2.17h-18.72c-1,0-1.25.33-1.25,1.25v6.85c0,.92.25,1.25,1.25,1.25h21.57c1.59,0,2.26.59,2.26,2.17v9.03Z"/>
      <path class="cls-8" d="M341.46,140.34h-10.2c-1.25,0-1.84-.42-1.84-1.17,0-.5.17-1,.42-1.51l26.66-53.08c1.59-3.26,2.51-4.26,3.84-4.26s2.17,1,3.85,4.26l26.83,53.08c.25.5.42,1,.42,1.42,0,.84-.67,1.25-1.92,1.25h-10.7c-2.09,0-2.93-.59-3.93-2.68l-14.79-30.43-14.63,30.43c-1,2.09-1.92,2.68-4.01,2.68Z"/>
      <path class="cls-8" d="M420.61,95.2c-.92,0-1.25.34-1.25,1.25v41.71c0,1.42-.58,2.17-2.17,2.17h-10.2c-1.42,0-2.17-.75-2.17-2.17v-41.71c0-.92-.33-1.25-1.25-1.25h-13.21c-1.42,0-2.17-.75-2.17-2.17v-9.03c0-1.59.75-2.17,2.17-2.17h43.47c1.59,0,2.17.59,2.17,2.17v9.03c0,1.42-.59,2.17-2.17,2.17h-13.21Z"/>
      <path class="cls-8" d="M445.68,140.34c-1.42,0-2.17-.75-2.17-2.17v-54.16c0-1.59.75-2.17,2.17-2.17h10.11c1.59,0,2.26.59,2.26,2.17v54.16c0,1.59-.67,2.17-2.26,2.17h-10.11Z"/>
      <path class="cls-8" d="M513.97,81.82h10.2c1.25,0,1.84.42,1.84,1.17,0,.5-.17,1-.42,1.5l-26.66,53.08c-1.59,3.26-2.51,4.26-3.84,4.26s-2.17-1-3.85-4.26l-26.83-53.08c-.25-.5-.42-1-.42-1.42,0-.84.67-1.25,1.92-1.25h10.7c2.09,0,2.93.59,3.93,2.67l14.79,30.43,14.63-30.43c1-2.09,1.92-2.67,4.01-2.67Z"/>
      <path class="cls-8" d="M557.09,140.34c-1.42,0-2.17-.75-2.17-2.17v-54.16c0-1.59.75-2.17,2.17-2.17h10.11c1.59,0,2.26.59,2.26,2.17v54.16c0,1.59-.67,2.17-2.26,2.17h-10.11ZM605.07,81.82c1.17,0,1.75.42,1.75,1.17,0,.33-.17.75-.5,1.25l-19.39,26,20.23,27.67c.42.42.58.92.58,1.34,0,.67-.75,1.09-1.84,1.09h-12.12c-2.26,0-2.93-.42-4.18-2.17l-17.97-25.49c-.5-.75-.75-1.42-.75-1.92,0-.59.25-1.25.84-2.01l17.47-24.66c1.25-1.92,2.01-2.26,4.1-2.26h11.79Z"/>
      <path class="cls-8" d="M616.18,140.34c-1.42,0-2.17-.75-2.17-2.17v-54.16c0-1.59.75-2.17,2.17-2.17h10.11c1.59,0,2.26.59,2.26,2.17v54.16c0,1.59-.67,2.17-2.26,2.17h-10.11Z"/>
    </g>
  </g>
</svg>